PathFileType	4	(X/Y/Z)	/Users/itak/Documents/Research/Walk-IL/dataset/trc/00207_00008.trc
DataRate	CameraRate	NumFrames	NumMarkers	Units	OrigDataRate	OrigDataStartFrame	OrigNumFrames
100.000000	100.000000	4	53	mm	100.000000	449	514
Frame#	Time	RPSI			LPSI			L3			STRN			T10			C7			CLAV			RBAK			LBAK			LSHO			LUPA			LAEL			LAOL			LWTS			LWPS			LFRA			LIFD			LHPS			LHTS			RSHO			RUPA			RAEL			RAOL			RWTS			RWPS			RFRA			RIFD			RHTS			RHPS			RBHD			LFHD			RFHD			LBHD			LHIP			RHIP			RASI			LASI			LKNE			LTHI			LANK			LTIP			LTOE			LMT1			LMT5			LHEE			RKNE			RTHI			RANK			RTIP			RTOE			RMT1			RMT5			RHEE			
		X1	Y1	Z1	X2	Y2	Z2	X3	Y3	Z3	X4	Y4	Z4	X5	Y5	Z5	X6	Y6	Z6	X7	Y7	Z7	X8	Y8	Z8	X9	Y9	Z9	X10	Y10	Z10	X11	Y11	Z11	X12	Y12	Z12	X13	Y13	Z13	X14	Y14	Z14	X15	Y15	Z15	X16	Y16	Z16	X17	Y17	Z17	X18	Y18	Z18	X19	Y19	Z19	X20	Y20	Z20	X21	Y21	Z21	X22	Y22	Z22	X23	Y23	Z23	X24	Y24	Z24	X25	Y25	Z25	X26	Y26	Z26	X27	Y27	Z27	X28	Y28	Z28	X29	Y29	Z29	X30	Y30	Z30	X31	Y31	Z31	X32	Y32	Z32	X33	Y33	Z33	X34	Y34	Z34	X35	Y35	Z35	X36	Y36	Z36	X37	Y37	Z37	X38	Y38	Z38	X39	Y39	Z39	X40	Y40	Z40	X41	Y41	Z41	X42	Y42	Z42	X43	Y43	Z43	X44	Y44	Z44	X45	Y45	Z45	X46	Y46	Z46	X47	Y47	Z47	X48	Y48	Z48	X49	Y49	Z49	X50	Y50	Z50	X51	Y51	Z51	X52	Y52	Z52	X53	Y53	Z53	

450	4.49	305.8890991210938	1059.106079101562	856.528076171875	429.9909057617188	1055.71044921875	862.1119384765625	365.2811584472656	1091.819946289062	859.7571411132812	373.4237365722656	1315.919799804688	1106.628051757812	372.2057189941406	1241.003784179688	814.5616455078125	390.5056457519531	1514.313720703125	858.9928588867188	385.6992492675781	1425.100219726562	1069.527465820312	276.57177734375	1337.573120117188	806.8970336914062	490.0874328613281	1487.262084960938	852.4867553710938	568.9733276367188	1476.74658203125	931.054931640625	636.5682373046875	1341.139526367188	902.4515380859375	646.225341796875	1124.695068359375	920.274169921875	567.1646118164062	1110.0751953125	880.4376220703125	623.6793823242188	890.5242309570312	1028.75732421875	655.117431640625	872.3372192382812	942.86376953125	659.7474365234375	1014.6318359375	931.2232666015625	595.5291137695312	708.0894165039062	1033.61474609375	653.0949096679688	802.5493774414062	961.2197875976562	643.3109130859375	810.3829956054688	1033.482543945312	209.4453887939453	1502.66162109375	925.7550659179688	138.1989288330078	1437.080200195312	911.4857788085938	70.91194152832031	1152.801513671875	917.8770751953125	167.9935455322266	1138.423095703125	914.9132690429688	72.29376983642578	934.9547729492188	1072.054077148438	24.88439559936523	916.9464721679688	997.3177490234375	47.41857528686523	1084.62744140625	947.4779052734375	77.24900054931641	743.8468627929688	1099.33251953125	57.39907073974609	843.9241333007812	1102.820190429688	21.18392562866211	835.6423950195312	1030.831176757812	320.1720886230469	1687.012817382812	895.1763305664062	462.0020446777344	1739.8759765625	1051.644409179688	334.3432312011719	1749.221557617188	1058.7236328125	456.6016235351562	1684.614135742188	879.88330078125	543.11962890625	996.3748168945312	971.2943115234375	172.0203857421875	1025.405517578125	1009.904052734375	227.5153350830078	1053.037109375	1091.214721679688	484.3721313476562	1037.710327148438	1095.3525390625	503.2731628417969	502.392578125	979.9893798828125	533.1407470703125	643.8104248046875	991.7163696289062	506.6396179199219	44.00531768798828	899.8817138671875	517.7599487304688	279.8192138671875	943.9359741210938	478.3863220214844	46.13106536865234	1120.283813476562	431.7993469238281	46.96776962280273	1068.36962890625	544.0823364257812	38.36854934692383	1008.463195800781	439.3011779785156	42.55434036254883	847.227783203125	188.8634338378906	519.173095703125	987.8517456054688	160.4546051025391	787.0470581054688	1047.558349609375	202.4108428955078	38.14200592041016	919.5253295898438	204.3694915771484	405.9598999023438	997.202392578125	209.1981201171875	45.11866760253906	1146.149780273438	260.2806396484375	46.15954208374023	1096.649536132812	152.6430511474609	38.75778961181641	1026.434326171875	274.9586791992188	35.25130844116211	876.91064453125	
451	4.5	305.8458251953125	1059.193725585938	857.0885620117188	429.8718566894531	1055.8857421875	862.9969482421875	365.171630859375	1092.004516601562	860.4877319335938	372.4810485839844	1315.915283203125	1107.544067382812	371.9474487304688	1241.252319335938	815.4754638671875	390.1590881347656	1514.491088867188	860.1854858398438	384.9221801757812	1425.125	1070.573852539062	276.3096923828125	1337.869750976562	807.7510986328125	489.7075805664062	1487.4677734375	853.7425537109375	568.4735717773438	1476.784423828125	932.4826049804688	636.0374145507812	1341.231567382812	903.3225708007812	645.1396484375	1124.777099609375	919.6322021484375	565.9218139648438	1110.572265625	879.9404907226562	623.0805053710938	889.1561279296875	1025.025024414062	654.2447509765625	872.2850341796875	938.7744750976562	658.7409057617188	1014.715942382812	929.18505859375	594.997802734375	706.584716796875	1027.066772460938	652.3758544921875	802.232666015625	956.0303344726562	642.7617797851562	808.9022827148438	1028.457641601562	208.9827880859375	1502.9228515625	926.5460815429688	137.6955108642578	1437.465942382812	912.1331787109375	70.0919189453125	1153.256591796875	918.3804931640625	167.1720275878906	1138.800903320312	915.36572265625	71.23796844482422	935.1024780273438	1072.098754882812	23.73689651489258	917.3338012695312	997.3287963867188	46.52958679199219	1085.07470703125	947.8720703125	75.95780944824219	743.8729248046875	1098.859252929688	56.24958801269531	843.9671020507812	1102.685302734375	19.93490600585938	835.9481811523438	1030.638671875	319.6275634765625	1686.9326171875	896.0958862304688	461.407470703125	1740.156616210938	1052.501831054688	333.7689514160156	1749.4072265625	1059.587646484375	456.0339050292969	1684.669799804688	880.7853393554688	542.6514282226562	996.41845703125	972.5354614257812	171.3973083496094	1025.508422851562	1010.09912109375	226.6090850830078	1053.116577148438	1091.5126953125	483.438232421875	1037.708618164062	1096.3642578125	502.8152770996094	502.4091491699219	980.6943969726562	532.5408935546875	643.844970703125	992.6021118164062	506.6141357421875	44.03643035888672	899.9022216796875	517.5023803710938	279.8379821777344	944.28271484375	478.3731079101562	46.12558364868164	1120.30810546875	431.7776489257812	46.93743515014648	1068.393676757812	544.0361938476562	38.40010833740234	1008.481262207031	439.2882995605469	42.63997650146484	847.2576904296875	188.6277923583984	519.154296875	989.0439453125	159.7831268310547	787.1112060546875	1048.190063476562	202.5012817382812	38.21987533569336	919.5817260742188	204.26953125	405.7607421875	998.3163452148438	209.2140350341797	45.05463409423828	1146.276245117188	260.3000793457031	46.07728958129883	1096.72607421875	152.6863250732422	38.80860900878906	1026.489624023438	275.0184631347656	35.31491088867188	877.0067749023438	
452	4.51	305.7194519042969	1059.255249023438	857.6441650390625	429.6894226074219	1056.0498046875	863.7981567382812	365.0045776367188	1092.178466796875	861.1775512695312	371.5352783203125	1315.9013671875	1108.417724609375	371.7334899902344	1241.507080078125	816.3538818359375	389.8404541015625	1514.673706054688	861.3602905273438	384.1293029785156	1425.150512695312	1071.593505859375	276.0984191894531	1338.160400390625	808.542724609375	489.3511352539062	1487.68994140625	855.0113525390625	567.9795532226562	1476.87255859375	933.9508666992188	635.5765380859375	1341.411743164062	904.2459716796875	644.155517578125	1124.935302734375	918.9969482421875	564.810546875	1111.142333984375	879.4095458984375	622.4883422851562	887.9984130859375	1021.458984375	653.4187622070312	872.3446044921875	934.90283203125	657.8167724609375	1014.880126953125	927.2296752929688	594.4304809570312	705.353271484375	1020.919372558594	651.6715698242188	802.060302734375	951.1448974609375	642.2127075195312	807.66162109375	1023.701538085938	208.5338439941406	1503.17138671875	927.2671508789062	137.2198486328125	1437.825927734375	912.6768798828125	69.31622314453125	1153.667846679688	918.7666625976562	166.3929595947266	1139.15380859375	915.716064453125	70.30378723144531	935.30126953125	1072.169189453125	22.70951461791992	917.6983032226562	997.3873291015625	45.69828414916992	1085.469360351562	948.1804809570312	74.86766815185547	743.9842529296875	1098.576049804688	55.26962661743164	844.0860595703125	1102.658325195312	18.84978866577148	836.2592163085938	1030.564086914062	319.0965270996094	1686.858642578125	896.9916381835938	460.8303527832031	1740.420532226562	1053.356201171875	333.2123107910156	1749.601684570312	1060.435546875	455.4856567382812	1684.70263671875	881.6832885742188	542.2006225585938	996.4960327148438	973.6718139648438	170.7893981933594	1025.568969726562	1010.337280273438	225.7660522460938	1053.199340820312	1091.821899414062	482.5774536132812	1037.707153320312	1097.276489257812	502.3510131835938	502.4344787597656	981.322265625	531.9459228515625	643.8849487304688	993.3649291992188	506.5744323730469	44.07017135620117	899.9197387695312	517.2346801757812	279.8753356933594	944.586669921875	478.3651123046875	46.11848831176758	1120.336303710938	431.7599487304688	46.9075813293457	1068.422241210938	543.9915771484375	38.43104934692383	1008.496643066406	439.2415771484375	42.72050476074219	847.2948608398438	188.3948516845703	519.13134765625	990.2326049804688	159.1139526367188	787.1812744140625	1048.837646484375	202.5933685302734	38.29473114013672	919.6372680664062	204.1741790771484	405.5554809570312	999.4269409179688	209.2322387695312	44.99356460571289	1146.401123046875	260.32177734375	45.99275970458984	1096.79736328125	152.7328033447266	38.86059951782227	1026.546752929688	275.0770874023438	35.37743377685547	877.1010131835938	
453	4.52	305.4896850585938	1059.28564453125	858.2047119140625	429.4274597167969	1056.19482421875	864.5226440429688	364.7633056640625	1092.3310546875	861.83544921875	370.6033020019531	1315.867553710938	1109.254272460938	371.5486755371094	1241.754760742188	817.2002563476562	389.5425720214844	1514.851928710938	862.5137939453125	383.3304443359375	1425.166137695312	1072.586181640625	275.9241638183594	1338.430541992188	809.2787475585938	489.0110778808594	1487.911254882812	856.2931518554688	567.4913940429688	1476.99853515625	935.4442138671875	635.1820068359375	1341.666015625	905.2155151367188	643.279541015625	1125.155151367188	918.3878173828125	563.8407592773438	1111.767944335938	878.8572387695312	621.89990234375	887.0307006835938	1018.089172363281	652.6492919921875	872.4926147460938	931.279541015625	656.9810180664062	1015.107116699219	925.3828125	593.8184814453125	704.3638916015625	1015.19189453125	650.9851684570312	802.0055541992188	946.5940551757812	641.65234375	806.6339721679688	1019.247009277344	208.0958251953125	1503.3935546875	927.93017578125	136.7714233398438	1438.1416015625	913.130615234375	68.58326721191406	1154.017578125	919.0313720703125	165.6545715332031	1139.463134765625	915.9678344726562	69.48307800292969	935.53466796875	1072.264038085938	21.80774688720703	918.0178833007812	997.4881591796875	44.92264556884766	1085.793090820312	948.3975219726562	73.97356414794922	744.1691284179688	1098.497436523438	54.44609069824219	844.2681884765625	1102.737548828125	17.93193435668945	836.5570068359375	1030.609008789062	318.5780029296875	1686.783813476562	897.8607177734375	460.2678527832031	1740.65966796875	1054.205200195312	332.666748046875	1749.79150390625	1061.26220703125	454.9580078125	1684.705444335938	882.5767822265625	541.766357421875	996.60595703125	974.691162109375	170.1987457275391	1025.571044921875	1010.642883300781	224.9974517822266	1053.26953125	1092.165893554688	481.8073120117188	1037.701538085938	1098.091430664062	501.8916015625	502.4658813476562	981.8742065429688	531.369873046875	643.9283447265625	994.0049438476562	506.5187683105469	44.10634613037109	899.9346923828125	516.9625854492188	279.9314270019531	944.8475341796875	478.3625793457031	46.10979461669922	1120.368408203125	431.7455749511719	46.87953186035156	1068.456298828125	543.948974609375	38.46044158935547	1008.50927734375	439.1572570800781	42.79288864135742	847.3409423828125	188.1578521728516	519.1007080078125	991.3589477539062	158.46826171875	787.2422485351562	1049.493774414062	202.6803436279297	38.36175537109375	919.6875	204.0724639892578	405.3518371582031	1000.476196289062	209.2508544921875	44.93920516967773	1146.515380859375	260.3443603515625	45.91196823120117	1096.859130859375	152.7788696289062	38.9098014831543	1026.600830078125	275.1311950683594	35.43345642089844	877.1856689453125	
